<?xml version="1.0" encoding="UTF-8" standalone="no"?>
<svg
   xmlns:dc="http://purl.org/dc/elements/1.1/"
   xmlns:cc="http://creativecommons.org/ns#"
   xmlns:rdf="http://www.w3.org/1999/02/22-rdf-syntax-ns#"
   xmlns:svg="http://www.w3.org/2000/svg"
   xmlns="http://www.w3.org/2000/svg"
   xmlns:sodipodi="http://sodipodi.sourceforge.net/DTD/sodipodi-0.dtd"
   xmlns:inkscape="http://www.inkscape.org/namespaces/inkscape"
   width="26.418709mm"
   height="26.406466mm"
   viewBox="0 0 26.418709 26.406466"
   version="1.1"
   id="svg8"
   inkscape:version="1.0.2-2 (e86c870879, 2021-01-15)"
   sodipodi:docname="edit.svg">
  <defs
     id="defs2" />
  <sodipodi:namedview
     id="base"
     pagecolor="#ffffff"
     bordercolor="#666666"
     borderopacity="1.0"
     inkscape:pageopacity="0.0"
     inkscape:pageshadow="2"
     inkscape:zoom="0.49497475"
     inkscape:cx="-323.63126"
     inkscape:cy="127.97666"
     inkscape:document-units="mm"
     inkscape:current-layer="layer1"
     inkscape:document-rotation="0"
     showgrid="false"
     fit-margin-top="0"
     fit-margin-left="0"
     fit-margin-right="0"
     fit-margin-bottom="0"
     inkscape:window-width="1920"
     inkscape:window-height="1001"
     inkscape:window-x="-9"
     inkscape:window-y="-9"
     inkscape:window-maximized="1" />
  <metadata
     id="metadata5">
    <rdf:RDF>
      <cc:Work
         rdf:about="">
        <dc:format>image/svg+xml</dc:format>
        <dc:type
           rdf:resource="http://purl.org/dc/dcmitype/StillImage" />
        <dc:title></dc:title>
      </cc:Work>
    </rdf:RDF>
  </metadata>
  <g
     inkscape:label="Layer 1"
     inkscape:groupmode="layer"
     id="layer1"
     transform="translate(-47.561492,-18.973427)">
    <path
       style="fill:#8e8e8e;fill-opacity:1;stroke-width:0.0516764"
       d="m 47.811765,45.282651 c -0.08753,-0.05338 -0.190541,-0.17284 -0.228912,-0.265476 -0.06544,-0.157983 -0.02071,-0.367212 0.721369,-3.374259 0.435124,-1.763208 0.813195,-3.288906 0.840159,-3.39044 0.04004,-0.150787 1.394914,-1.531283 7.395738,-7.535616 l 7.346713,-7.351009 2.82955,2.829199 2.82955,2.829199 -7.323505,7.323641 c -4.027928,4.028003 -7.382399,7.347091 -7.45438,7.375751 -0.174052,0.0693 -6.608719,1.656499 -6.714615,1.656251 -0.04539,-1.04e-4 -0.154136,-0.04386 -0.241667,-0.09724 z m 20.528241,-20.713293 -2.833624,-2.826345 1.15414,-1.146085 c 0.934034,-0.927515 1.215669,-1.176935 1.476762,-1.307842 0.455503,-0.228382 0.840073,-0.315659 1.390891,-0.315659 0.577299,0 1.135919,0.158142 1.567942,0.443874 0.156321,0.103388 0.752171,0.65733 1.32411,1.230981 0.970011,0.972914 1.054028,1.072357 1.250272,1.47983 0.348593,0.723804 0.401487,1.417272 0.165882,2.174792 -0.162781,0.52337 -0.441897,0.878659 -1.587706,2.021005 l -1.075044,1.071794 z"
       id="path847" />
  </g>
</svg>
